<?xml version="1.0" encoding="UTF-8"?>
<svg version="1.1" viewBox="0 0 2000 550" xmlns="http://www.w3.org/2000/svg">
<g transform="translate(-1.2113 -.96821)">
<svg width="2e3" height="550" data-background-color="#d2d6dc" viewBox="0 0 396 109" xmlns="http://www.w3.org/2000/svg" xmlns:xlink="http://www.w3.org/1999/xlink">
<g transform="translate(.24009 .19188)">
<svg width="395.52" height="108.62" viewBox="0 0 395.52 108.61623502824858">
<svg width="395.52" height="108.62" viewBox="0 0 395.52 108.61623502824858">
<svg width="395.52" height="108.62" viewBox="0 0 395.52 108.61623502824858">
<svg width="395.52" height="108.62" viewBox="0 0 395.52 108.61623502824858">
<svg width="395.52" height="108.62" viewBox="0 0 395.52 108.61623502824858">
<path d="m394.59 23.296c-1.859-11.274-7.159-14.408-7.159-14.408-16.27-11.613-36.575-9.11-54.816-7.442-32.205 0.068-64.28 2.548-96.411 3.879-67.441 0.203-135.46-3.134-202.56 5.096-6.304 2.525-40.183 0.496-32.522 14.318 2.008 5.75 9.335 12.131 9.111 17.408 1.004 0.924 2.399-1.195 2.994 0.135 2.083 3.585 5.485 1.894 8.275 4.014-3.887 5.659-1.098 10.372 1.561 15.31-4.685 1.286-10.691 0.677-13.387 4.938-0.279 3.09-1.785 2.503-3.44 2.368-1.209-0.09-3.645 0.248-3.236 1.218 1.395 3.314-4.593 5.231-0.837 8.478-2.584 3.518 1.786 6.562 1.191 10.372-0.075 0.767 0.334 1.421 0.985 1.601 2.882 0.97-1.32 2.864-0.874 4.916 29.565 14.025 61.64 4.329 91.93 10.778 7.865-4.51 1.952 1.601 5.095 0.654 2.454-1.105 4.239 3.473 7.01 0.879 0.428-0.744-0.223-2.502 1.301-2.164 0.8 0.18 1.507 0.135 1.618-0.902 0.168-1.556-1.301-0.586-1.692-1.398 4.221-4.104 3.18 5.66 7.14 5.254-0.186-1.195-1.338-2.909 1.023-2.684 2.343-1.713 2.417-3.134 4.5 0.722 0.074 0.834 0.446 1.42 1.041 1.826 6.508-4.194 12.979 1.489 19.803-0.406 4.184-2.074 8.2 1.128 12.439 0.339 1.488-0.632 2.994-1.759 4.426 0.135 17.534 0.406 36.221-1.285 52.845 0.068 44.421-2.526 91.893 1.037 138.73-2.3 11.045-1.286 22.518-3.112 33.284-4.578 0 0 8.721-4.013 8.721-22.052s1.859-15.784 2.138-30.148c0.279-14.363 1.581-14.95-0.279-26.224z" fill="#fff" data-fill-palette-color="tertiary"/>
<g transform="translate(55.768 26.231)">
<svg width="283.98" height="56.155" data-palette-color="#d2d6dc" viewBox="1.88 -33.33 221.22 43.75">
<path class="wordmark-text-0" d="m12.92 0.42q-3.06 0-5.56-1.46t-3.99-3.93q-1.49-2.46-1.49-5.45 0-2.98 1.49-5.45 1.49-2.46 3.99-3.92t5.56-1.46q2.25 0 4.23 0.8t3.48 2.12l-1.15 4.72q-0.87-1.74-2.62-2.92-1.76-1.18-3.98-1.18-2.01 0-3.66 0.99t-2.62 2.64-0.97 3.66q0 1.98 0.97 3.65t2.62 2.66q1.65 0.98 3.66 0.98 2.22 0 3.98-1.14 1.75-1.15 2.62-2.95l1.15 4.72q-1.5 1.32-3.48 2.12t-4.23 0.8zm16.04-0.42h-3.75v-20.83h3.47v3.82q1.11-1.84 2.95-2.94 1.84-1.09 4.37-1.09l0.94 3.75q-0.66-0.21-1.53-0.21-2.91 0-4.68 1.86t-1.77 5.29v10.35zm21.8 0.42q-3.26 0-5.85-1.46t-4.06-3.98q-1.48-2.51-1.48-5.61 0-2.95 1.42-5.36 1.43-2.41 3.84-3.84 2.41-1.42 5.33-1.42 2.88 0 5.28 1.37 2.39 1.37 3.82 3.7 1.42 2.33 1.42 5.28v1.52h-13.61q-0.9 0-1.84-0.06-0.94-0.07-1.84-0.21 0.38 2.77 2.52 4.65 2.13 1.87 5.08 1.87 1.98 0 3.68-0.9 1.71-0.9 2.75-2.39l1.04 4.27q-1.49 1.21-3.42 1.89t-4.08 0.68zm-7.67-12.61q1.87-0.31 3.78-0.31h6.91q0.76 0 1.51 0.05t1.51 0.12q-0.49-2.43-2.43-4.01t-4.41-1.58q-2.53 0-4.44 1.69-1.91 1.68-2.43 4.04zm31.31 12.47q-2.84 0-5.21-1.44-2.36-1.44-3.76-3.87-1.41-2.44-1.41-5.39t1.41-5.38q1.4-2.43 3.76-3.87 2.37-1.44 5.21-1.44 2.16 0 4.05 0.8t3.28 2.22v-2.74h3.47v20.83h-3.47v-2.74q-1.39 1.39-3.28 2.2-1.89 0.82-4.05 0.82zm0.49-3.41q1.98 0 3.59-0.98 1.62-0.99 2.57-2.64 0.96-1.65 0.96-3.67 0-2.01-0.96-3.66-0.95-1.65-2.57-2.64-1.61-0.99-3.59-0.99t-3.6 0.99q-1.61 0.99-2.56 2.64-0.96 1.65-0.96 3.66 0 2.02 0.96 3.67 0.95 1.65 2.56 2.64 1.62 0.98 3.6 0.98zm23.16 3.13h-3.75v-17.71h-4.73v-3.12h4.83v-6.95h3.54v6.95h5.18v3.12h-5.07v17.71zm18.95 0.42q-3.02 0-5.52-1.46t-3.98-3.93q-1.47-2.46-1.47-5.45 0-3.02 1.47-5.47 1.48-2.44 3.98-3.9t5.52-1.46q3.06 0 5.54 1.46t3.96 3.9q1.47 2.45 1.47 5.47 0 2.99-1.47 5.45-1.48 2.47-3.96 3.93t-5.54 1.46zm0-3.55q2.02 0 3.65-0.98 1.63-0.99 2.6-2.64t0.97-3.67q0-2.01-0.97-3.66t-2.6-2.64-3.65-0.99q-2.01 0-3.64 0.99-1.64 0.99-2.61 2.64t-0.97 3.66q0 2.02 0.97 3.67t2.61 2.64q1.63 0.98 3.64 0.98zm19.93 3.13h-3.75v-20.83h3.47v3.82q1.11-1.84 2.95-2.94 1.84-1.09 4.38-1.09l0.94 3.75q-0.66-0.21-1.53-0.21-2.92 0-4.69 1.86t-1.77 5.29v10.35zm17.25 0.42q-1.59 0-3.42-0.61-1.82-0.61-3.14-2.03l1.04-4.1q0.98 1.63 2.5 2.59 1.53 0.95 3.27 0.95 1.66 0 2.5-0.81 0.83-0.82 0.83-2 0-1.35-0.89-1.98-0.88-0.62-1.57-0.87l-2.82-1.07q-0.76-0.32-1.84-0.92-1.07-0.61-1.87-1.76-0.8-1.14-0.8-2.98 0-1.67 0.8-3.06t2.25-2.2q1.46-0.82 3.44-0.82 1.56 0 3.27 0.56 1.7 0.55 2.88 1.87l-1.04 4.1q-0.84-1.53-2.26-2.43-1.42-0.91-2.95-0.91-1.43 0-2.24 0.8-0.82 0.8-0.82 1.84 0 0.84 0.56 1.5 0.55 0.66 1.66 1.07l2.82 1.08q0.76 0.28 1.89 0.9 1.13 0.63 2 1.81 0.86 1.18 0.86 3.19 0 2.81-1.96 4.55t-4.95 1.74zm16.08-0.42h-3.75v-33.33h3.75v15.45q1.18-1.63 2.91-2.5 1.74-0.87 3.72-0.87 2.22 0 4.11 1.09 1.9 1.1 3.08 3.16 1.18 2.07 1.18 5.02v11.98h-3.75v-11.46q0-2.46-1.48-4.36-1.47-1.89-4.15-1.89-2.18 0-3.9 1.58t-1.72 4.57v11.56zm25 0h-3.75v-20.83h3.75v20.83zm-1.88-24.58q-1.04 0-1.77-0.73t-0.73-1.77q0-1.08 0.73-1.79t1.77-0.71q1.08 0 1.79 0.71t0.71 1.79q0 1.04-0.71 1.77t-1.79 0.73zm12.29 35h-3.75v-31.25h3.47v2.74q1.43-1.42 3.3-2.22 1.88-0.8 4.03-0.8 2.88 0 5.22 1.44 2.35 1.44 3.75 3.87 1.41 2.43 1.41 5.38t-1.41 5.39q-1.4 2.43-3.75 3.87-2.34 1.44-5.22 1.44-2.05 0-3.86-0.73-1.8-0.73-3.19-2.02v12.89zm6.56-13.55q1.98 0 3.6-0.98 1.61-0.99 2.57-2.64 0.95-1.65 0.95-3.67 0-2.01-0.95-3.66-0.96-1.65-2.57-2.64-1.62-0.99-3.6-0.99t-3.59 0.99q-1.62 0.99-2.57 2.64-0.96 1.65-0.96 3.66 0 2.02 0.96 3.67 0.95 1.65 2.57 2.64 1.61 0.98 3.59 0.98z" data-fill-palette-color="quaternary"/>
</svg>
</g>
</svg>
</svg>
</svg>
</svg>
</svg>
<rect width="395.52" height="108.62" fill="none" visibility="hidden"/>
</g>
</svg>
</g>
</svg>
