<?xml version="1.0" encoding="UTF-8"?>
<svg version="1.1" viewBox="0 0 2000 681" xmlns="http://www.w3.org/2000/svg">
<g transform="translate(-1.2113 -.65253)">
<svg width="2e3" height="681" data-background-color="#d2d6dc" viewBox="0 0 396 135" xmlns="http://www.w3.org/2000/svg" xmlns:xlink="http://www.w3.org/1999/xlink">
<g transform="translate(.24009 .12936)">
<svg width="395.52" height="134.74" viewBox="0 0 395.52 134.74128878507645">
<svg width="395.52" height="134.74" viewBox="0 0 395.52 134.74128878507645">
<svg width="395.52" height="134.74" viewBox="0 0 395.52 134.74128878507645">
<svg width="395.52" height="134.74" viewBox="0 0 395.52 134.74128878507645">
<svg width="395.52" height="108.29" viewBox="0 0 395.52 108.29202398824859">
<path d="m394.59 23.227c-1.859-11.241-7.159-14.366-7.159-14.366-16.27-11.578-36.575-9.082-54.816-7.419-32.205 0.068-64.28 2.541-96.411 3.867-67.441 0.202-135.46-3.125-202.56 5.081-6.304 2.518-40.183 0.494-32.522 14.275 2.008 5.733 9.335 12.095 9.111 17.356 1.004 0.922 2.399-1.192 2.994 0.135 2.083 3.574 5.485 1.888 8.275 4.002-3.887 5.642-1.098 10.341 1.561 15.264-4.685 1.282-10.691 0.675-13.387 4.924-0.279 3.08-1.785 2.495-3.44 2.36-1.209-0.09-3.645 0.248-3.236 1.214 1.395 3.305-4.593 5.216-0.837 8.453-2.584 3.507 1.786 6.542 1.191 10.342-0.075 0.764 0.334 1.416 0.985 1.596 2.882 0.967-1.32 2.855-0.874 4.901 29.565 13.983 61.64 4.316 91.93 10.746 7.865-4.496 1.952 1.596 5.095 0.652 2.454-1.102 4.239 3.462 7.01 0.877 0.428-0.742-0.223-2.496 1.301-2.159 0.8 0.18 1.507 0.135 1.618-0.899 0.168-1.551-1.301-0.584-1.692-1.394 4.221-4.091 3.18 5.643 7.14 5.239-0.186-1.192-1.338-2.901 1.023-2.676 2.343-1.708 2.417-3.125 4.5 0.72 0.074 0.831 0.446 1.416 1.041 1.821 6.508-4.182 12.979 1.483 19.803-0.405 4.184-2.068 8.2 1.124 12.439 0.337 1.488-0.629 2.994-1.753 4.426 0.135 17.534 0.405 36.221-1.281 52.845 0.068 44.421-2.518 91.893 1.034 138.73-2.294 11.045-1.281 22.518-3.102 33.284-4.563 0 0 8.721-4.002 8.721-21.987s1.859-15.737 2.138-30.058c0.279-14.32 1.581-14.905-0.279-26.145z" fill="#fff" data-fill-palette-color="tertiary"/>
<g transform="translate(55.768 26.069)">
<svg width="283.98" height="56.155" data-palette-color="#d2d6dc" viewBox="1.88 -33.33 221.22 43.75">
<path class="wordmark-text-0" d="m12.92 0.42q-3.06 0-5.56-1.46t-3.99-3.93q-1.49-2.46-1.49-5.45 0-2.98 1.49-5.45 1.49-2.46 3.99-3.92t5.56-1.46q2.25 0 4.23 0.8t3.48 2.12l-1.15 4.72q-0.87-1.74-2.62-2.92-1.76-1.18-3.98-1.18-2.01 0-3.66 0.99t-2.62 2.64-0.97 3.66q0 1.98 0.97 3.65t2.62 2.66q1.65 0.98 3.66 0.98 2.22 0 3.98-1.14 1.75-1.15 2.62-2.95l1.15 4.72q-1.5 1.32-3.48 2.12t-4.23 0.8zm16.04-0.42h-3.75v-20.83h3.47v3.82q1.11-1.84 2.95-2.94 1.84-1.09 4.37-1.09l0.94 3.75q-0.66-0.21-1.53-0.21-2.91 0-4.68 1.86t-1.77 5.29v10.35zm21.8 0.42q-3.26 0-5.85-1.46t-4.06-3.98q-1.48-2.51-1.48-5.61 0-2.95 1.42-5.36 1.43-2.41 3.84-3.84 2.41-1.42 5.33-1.42 2.88 0 5.28 1.37 2.39 1.37 3.82 3.7 1.42 2.33 1.42 5.28v1.52h-13.61q-0.9 0-1.84-0.06-0.94-0.07-1.84-0.21 0.38 2.77 2.52 4.65 2.13 1.87 5.08 1.87 1.98 0 3.68-0.9 1.71-0.9 2.75-2.39l1.04 4.27q-1.49 1.21-3.42 1.89t-4.08 0.68zm-7.67-12.61q1.87-0.31 3.78-0.31h6.91q0.76 0 1.51 0.05t1.51 0.12q-0.49-2.43-2.43-4.01t-4.41-1.58q-2.53 0-4.44 1.69-1.91 1.68-2.43 4.04zm31.31 12.47q-2.84 0-5.21-1.44-2.36-1.44-3.76-3.87-1.41-2.44-1.41-5.39t1.41-5.38q1.4-2.43 3.76-3.87 2.37-1.44 5.21-1.44 2.16 0 4.05 0.8t3.28 2.22v-2.74h3.47v20.83h-3.47v-2.74q-1.39 1.39-3.28 2.2-1.89 0.82-4.05 0.82zm0.49-3.41q1.98 0 3.59-0.98 1.62-0.99 2.57-2.64 0.96-1.65 0.96-3.67 0-2.01-0.96-3.66-0.95-1.65-2.57-2.64-1.61-0.99-3.59-0.99t-3.6 0.99q-1.61 0.99-2.56 2.64-0.96 1.65-0.96 3.66 0 2.02 0.96 3.67 0.95 1.65 2.56 2.64 1.62 0.98 3.6 0.98zm23.16 3.13h-3.75v-17.71h-4.73v-3.12h4.83v-6.95h3.54v6.95h5.18v3.12h-5.07v17.71zm18.95 0.42q-3.02 0-5.52-1.46t-3.98-3.93q-1.47-2.46-1.47-5.45 0-3.02 1.47-5.47 1.48-2.44 3.98-3.9t5.52-1.46q3.06 0 5.54 1.46t3.96 3.9q1.47 2.45 1.47 5.47 0 2.99-1.47 5.45-1.48 2.47-3.96 3.93t-5.54 1.46zm0-3.55q2.02 0 3.65-0.98 1.63-0.99 2.6-2.64t0.97-3.67q0-2.01-0.97-3.66t-2.6-2.64-3.65-0.99q-2.01 0-3.64 0.99-1.64 0.99-2.61 2.64t-0.97 3.66q0 2.02 0.97 3.67t2.61 2.64q1.63 0.98 3.64 0.98zm19.93 3.13h-3.75v-20.83h3.47v3.82q1.11-1.84 2.95-2.94 1.84-1.09 4.38-1.09l0.94 3.75q-0.66-0.21-1.53-0.21-2.92 0-4.69 1.86t-1.77 5.29v10.35zm17.25 0.42q-1.59 0-3.42-0.61-1.82-0.61-3.14-2.03l1.04-4.1q0.98 1.63 2.5 2.59 1.53 0.95 3.27 0.95 1.66 0 2.5-0.81 0.83-0.82 0.83-2 0-1.35-0.89-1.98-0.88-0.62-1.57-0.87l-2.82-1.07q-0.76-0.32-1.84-0.92-1.07-0.61-1.87-1.76-0.8-1.14-0.8-2.98 0-1.67 0.8-3.06t2.25-2.2q1.46-0.82 3.44-0.82 1.56 0 3.27 0.56 1.7 0.55 2.88 1.87l-1.04 4.1q-0.84-1.53-2.26-2.43-1.42-0.91-2.95-0.91-1.43 0-2.24 0.8-0.82 0.8-0.82 1.84 0 0.84 0.56 1.5 0.55 0.66 1.66 1.07l2.82 1.08q0.76 0.28 1.89 0.9 1.13 0.63 2 1.81 0.86 1.18 0.86 3.19 0 2.81-1.96 4.55t-4.95 1.74zm16.08-0.42h-3.75v-33.33h3.75v15.45q1.18-1.63 2.91-2.5 1.74-0.87 3.72-0.87 2.22 0 4.11 1.09 1.9 1.1 3.08 3.16 1.18 2.07 1.18 5.02v11.98h-3.75v-11.46q0-2.46-1.48-4.36-1.47-1.89-4.15-1.89-2.18 0-3.9 1.58t-1.72 4.57v11.56zm25 0h-3.75v-20.83h3.75v20.83zm-1.88-24.58q-1.04 0-1.77-0.73t-0.73-1.77q0-1.08 0.73-1.79t1.77-0.71q1.08 0 1.79 0.71t0.71 1.79q0 1.04-0.71 1.77t-1.79 0.73zm12.29 35h-3.75v-31.25h3.47v2.74q1.43-1.42 3.3-2.22 1.88-0.8 4.03-0.8 2.88 0 5.22 1.44 2.35 1.44 3.75 3.87 1.41 2.43 1.41 5.38t-1.41 5.39q-1.4 2.43-3.75 3.87-2.34 1.44-5.22 1.44-2.05 0-3.86-0.73-1.8-0.73-3.19-2.02v12.89zm6.56-13.55q1.98 0 3.6-0.98 1.61-0.99 2.57-2.64 0.95-1.65 0.95-3.67 0-2.01-0.95-3.66-0.96-1.65-2.57-2.64-1.62-0.99-3.6-0.99t-3.59 0.99q-1.62 0.99-2.57 2.64-0.96 1.65-0.96 3.66 0 2.02 0.96 3.67 0.95 1.65 2.57 2.64 1.61 0.98 3.59 0.98z" data-fill-palette-color="quaternary"/>
</svg>
</g>
</svg>
<g transform="translate(75.544 121.55)">
<svg width="244.43" height="13.192" viewBox="0 0 244.43135999999998 13.192440224299062">
<g>
<svg width="244.43" height="13.192" data-palette-color="#6b7280" viewBox="1.7 -34 641.92 34.65">
<path class="slogan-text-1" d="m9.15 0.65q-3.5 0-5.47-2.13-1.98-2.12-1.98-5.92 0-3.75 1.6-6.7t4.4-4.65 6.35-1.7q2.4 0 3.8 0.8t1.4 2.2q0 1.25-1.2 2.45-0.45 0.45-1.17 0.82-0.73 0.38-1.13 0.38-0.45 0-0.75-0.35-0.5-0.55-1.3-1.05t-2.25-0.5q-2.45 0-4 1.67-1.55 1.68-1.55 4.38 0 2.45 1.4 3.95t3.7 1.5q1.2 0 2.63-0.43 1.42-0.42 2.52-1.22 0.55-0.5 1.15-0.5 1 0 1 1.25 0 1.65-1.65 3.15-1.25 1.15-3.32 1.87-2.08 0.73-4.18 0.73zm21.15 0q-3.45 0-5.53-1.88-2.07-1.87-2.07-5.52 0-1.7 0.47-3.3 0.48-1.6 1.28-3-0.8 0.5-1.2 0.5-0.6 0-0.83-0.68-0.22-0.67-0.22-1.32 0-1.15 0.47-1.83 0.48-0.67 0.93-1.02 1.05-0.9 3.3-1.98 2.25-1.07 5.4-1.07 4.3 0 6.67 2.4 2.38 2.4 2.38 6.7 0 3.35-1.4 6.07-1.4 2.73-3.88 4.33-2.47 1.6-5.77 1.6zm1.55-5.1q2.5 0 4.22-1.58 1.73-1.57 1.73-4.17 0-2.7-1.75-3.85t-4.05-1.15q-1.05 0-1.9 0.2t-1.6 0.5q-0.7 1-1.25 2.25t-0.55 2.75q0 2.5 1.5 3.77 1.5 1.28 3.65 1.28zm16.15 5q-1.8 0-1.6-1.2 0.55-2.15 0.92-4.38 0.38-2.22 0.38-4.27 0-2.65-0.33-3.88-0.32-1.22-0.87-1.7-0.55-0.47-1.35-0.72-0.35-0.15-0.63-0.4-0.27-0.25-0.27-0.7 0-0.7 0.55-1.55 0.54-0.85 1.57-1.48 1.03-0.62 2.33-0.62 1.7 0 2.35 1.17 0.65 1.18 0.65 3.08 0 1.25-0.25 2.8t-0.5 2.8l0.14 0.05q1-2.65 2.43-4.93 1.43-2.27 3.32-3.67 1.91-1.4 4.41-1.4 2.65 0 4.05 1.6t1.4 4q0 1-0.23 1.9-0.22 0.9-0.47 1.75-0.25 0.8-0.43 1.65-0.17 0.85-0.17 1.7 0 2.85 2.69 3.85 0.71 0.3 0.71 0.9 0 0.45-0.3 1.3t-1.1 1.57q-0.81 0.73-2.35 0.73-2 0-3.1-1.43-1.11-1.42-1.11-3.62 0-1.25 0.28-2.53 0.28-1.27 0.58-2.37 0.2-0.85 0.37-1.68 0.18-0.82 0.18-1.47 0-2.3-2.41-2.3-2.04 0-3.59 1.52-1.55 1.53-2.66 3.83-1.09 2.3-1.79 4.65v1.2q0 1.85-1.03 3.05-1.02 1.2-2.77 1.2zm26.79 0q-1.8 0-1.6-1.2 0.55-2.15 0.93-4.38 0.37-2.22 0.37-4.27 0-2.65-0.32-3.88-0.33-1.22-0.88-1.7-0.55-0.47-1.35-0.72-0.35-0.15-0.62-0.4-0.28-0.25-0.28-0.7 0-0.7 0.55-1.55t1.58-1.48q1.02-0.62 2.32-0.62 1.7 0 2.35 1.17 0.65 1.18 0.65 3.08 0 1.25-0.25 2.8t-0.5 2.8l0.15 0.05q1-2.65 2.43-4.93 1.42-2.27 3.32-3.67t4.4-1.4q2.65 0 4.05 1.6t1.4 4q0 1-0.22 1.9-0.23 0.9-0.48 1.75-0.25 0.8-0.42 1.65-0.18 0.85-0.18 1.7 0 2.85 2.7 3.85 0.7 0.3 0.7 0.9 0 0.45-0.3 1.3t-1.1 1.57q-0.8 0.73-2.35 0.73-2 0-3.1-1.43-1.1-1.42-1.1-3.62 0-1.25 0.28-2.53 0.27-1.27 0.57-2.37 0.2-0.85 0.38-1.68 0.17-0.82 0.17-1.47 0-2.3-2.4-2.3-2.05 0-3.6 1.52-1.55 1.53-2.65 3.83t-1.8 4.65v1.2q0 1.85-1.02 3.05-1.03 1.2-2.78 1.2zm31.85 0.1q-3.8 0-5.92-2.18-2.13-2.17-2.13-6.07 0-3.55 1.55-6.45t4.17-4.63q2.63-1.72 5.78-1.72 3 0 4.8 1.47 1.8 1.48 1.8 3.93 0 1.95-1.2 3.6t-3.2 2.62q-2 0.98-4.45 0.98-3 0-4.9-1.35 0.05 2.3 1.58 3.7 1.52 1.4 3.92 1.4 1.45 0 2.98-0.53 1.52-0.52 2.62-1.42 0.7-0.6 1.3-0.6 0.5 0 0.83 0.32 0.32 0.33 0.32 0.83 0 1.1-1.9 2.9-3.35 3.2-7.95 3.2zm0.75-11.75q1.8 0 3-0.75t1.2-1.9q0-0.95-0.8-1.48-0.8-0.52-2.2-0.52-1.85 0-3.23 0.97-1.37 0.98-1.97 2.73 0.7 0.45 1.8 0.7t2.2 0.25zm20.2 11.75q-3.5 0-5.48-2.13-1.97-2.12-1.97-5.92 0-3.75 1.6-6.7t4.4-4.65 6.35-1.7q2.4 0 3.8 0.8t1.4 2.2q0 1.25-1.2 2.45-0.45 0.45-1.18 0.82-0.72 0.38-1.12 0.38-0.45 0-0.75-0.35-0.5-0.55-1.3-1.05t-2.25-0.5q-2.45 0-4 1.67-1.55 1.68-1.55 4.38 0 2.45 1.4 3.95t3.7 1.5q1.2 0 2.62-0.43 1.43-0.42 2.53-1.22 0.55-0.5 1.15-0.5 1 0 1 1.25 0 1.65-1.65 3.15-1.25 1.15-3.33 1.87-2.07 0.73-4.17 0.73zm20.29 0q-3.04 0-4.37-2.03-1.32-2.02-1.32-5.22 0-1.15 0.12-2.25 0.13-1.1 0.28-2.2t0.29-2.15q0.15-1.05 0.25-2-1.04 0.3-2.1 0.3-1.09 0-1.09-0.9 0-0.95 0.84-2.33 0.85-1.37 2.13-2.72t2.55-2.28q1.28-0.92 2.17-0.92 1.11 0 1.11 1.9 0 0.5-0.08 1.02-0.07 0.53-0.17 1.08 0.95-0.2 1.92-0.35t1.87-0.15q1.16 0 1.78 0.4 0.63 0.4 0.63 1.55 0 1.2-0.58 2.4t-1.27 1.2q-0.15 0-0.5-0.05t-0.85-0.15q-0.65-0.15-1.65-0.3t-2.4-0.15q-0.35 1.55-0.63 3.17-0.28 1.63-0.28 2.93 0 2.9 1.46 3.95 1.45 1.05 4.2 1.05 0.84 0 1.19 0.27 0.36 0.28 0.36 0.98 0 1.65-1.71 2.8-1.69 1.15-4.15 1.15zm33.05 0q-1.85 0-3.18-0.65-1.32-0.65-2.32-1.65-0.5 0.85-1.18 1.52-0.67 0.68-1.52 0.68-0.55 0-1.05-0.32-0.5-0.33-0.4-0.88 0.75-4 1.28-8.1 0.52-4.1 0.52-8.35 0-3.55-0.25-6.65t-1.55-5.7q-0.25-0.5-0.42-0.95-0.18-0.45-0.18-0.85 0-0.95 1.1-1.85t2.35-0.9q1.8 0 2.45 2.2t0.65 6.5q0 3.65-0.32 6.67-0.33 3.03-0.73 5.18 1.4-2.95 3.82-4.98 2.43-2.02 5.48-2.02t4.77 2.02q1.73 2.03 1.73 5.48 0 2.55-0.8 4.97-0.8 2.43-2.25 4.38t-3.47 3.1q-2.03 1.15-4.53 1.15zm1.15-5.4q2.85 0 4.4-1.8t1.55-4.15q0-2.05-1.12-3.18-1.13-1.12-2.98-1.12t-3.3 1.12q-1.45 1.13-2.45 2.95-1 1.83-1.55 3.93 1.15 1.1 2.58 1.67 1.42 0.58 2.87 0.58zm20 5.4q-2.5 0-3.88-1.45-1.37-1.45-1.37-4.2 0-1.95 0.55-4 0.25-0.85 0.4-1.7t0.15-1.7q0-2.2-1.35-2.85-1.3-0.7-1.3-1.5t0.67-1.6q0.68-0.8 1.68-1.33 1-0.52 2-0.52 2.85 0 2.85 4.65 0 1.5-0.23 2.77-0.22 1.28-0.52 2.43-0.2 0.8-0.33 1.6-0.12 0.8-0.12 1.4 0 2.5 2.45 2.5 2.3 0 4.3-2.45t3.3-6.85l-0.05-0.95q-0.1-2.5 0.87-3.8 0.98-1.3 2.88-1.3 1.65 0 1.65 1.05 0 0.35-0.13 0.9-0.12 0.55-0.37 1.3-0.5 1.85-0.85 3.92-0.35 2.08-0.35 3.83 0 1.95 0.6 3.22 0.6 1.28 2.25 1.73 0.45 0.05 0.72 0.27 0.28 0.23 0.28 0.93 0 1.2-1 2.35t-2.9 1.15q-3.65 0-3.65-5.15 0-0.9 0.15-2.7l-0.1-0.05q-3.15 8.1-9.25 8.1zm26.2 0q-1.85 0-3.45-0.55-1.61-0.55-2.61-1.55t-1-2.4q0-0.75 0.38-1.43 0.37-0.67 1.23-0.67 0.45 0 0.95 0.25 0.9 0.5 2.3 0.92 1.39 0.43 2.95 0.43 1.75 0 3.1-0.5 1.34-0.5 1.34-1.4 0-0.7-1.02-1t-3.42-0.65q-1.65-0.3-3.2-0.7t-2.55-1.38q-1-0.97-1-2.87 0-1.85 1.02-3.58 1.03-1.72 3.08-2.87t5-1.15q1.55 0 3 0.35t2.4 1.05q0.94 0.7 0.94 1.75 0 0.9-0.62 1.65-0.63 0.75-1.45 1.22-0.82 0.48-1.37 0.48-0.4 0-0.95-0.55-0.86-0.7-1.88-0.98-1.02-0.27-2.02-0.27-1.5 0-2.43 0.45-0.92 0.45-0.92 1.15 0 0.65 0.77 1.05 0.78 0.4 1.93 0.57 1.15 0.18 2.19 0.33 2.91 0.4 4.61 1.37 1.7 0.98 1.7 3.43 0 1.9-1.08 3.77-1.07 1.88-3.1 3.08-2.02 1.2-4.82 1.2zm17.49-25.5q-1.4-0.05-2.25-0.85t-0.85-2.25q0.05-1.55 1.05-2.53 1-0.97 2.55-0.92 1.45 0.05 2.28 0.85 0.82 0.8 0.77 2.25-0.05 1.5-1 2.47-0.95 0.98-2.55 0.98zm0.05 25.35q-1.5 0-2.35-0.83-0.85-0.82-0.85-2.82 0-1.15 0.23-2.25 0.22-1.1 0.52-2.15 0.35-1.1 0.58-2.25 0.22-1.15 0.22-2.45 0-0.9-0.25-1.73-0.25-0.82-1.1-1.22-0.65-0.35-1.12-0.73-0.48-0.37-0.48-0.97 0-0.7 0.65-1.5t1.73-1.38q1.07-0.57 2.22-0.57 1.25 0 1.83 0.65 0.57 0.65 0.77 1.65t0.2 2.05q0 1.6-0.25 3.12-0.25 1.53-0.5 2.83-0.2 0.95-0.3 1.75t-0.1 1.5q0 1.25 0.6 1.87 0.6 0.63 1.7 1.18 0.45 0.25 0.45 0.75 0 0.4-0.4 1.25t-1.37 1.55q-0.98 0.7-2.63 0.7zm10.95 0.05q-1.8 0-1.6-1.2 0.55-2.15 0.93-4.38 0.37-2.22 0.37-4.27 0-2.65-0.32-3.88-0.33-1.22-0.88-1.7-0.55-0.47-1.35-0.72-0.35-0.15-0.62-0.4-0.28-0.25-0.28-0.7 0-0.7 0.55-1.55t1.58-1.48q1.02-0.62 2.32-0.62 1.7 0 2.35 1.17 0.65 1.18 0.65 3.08 0 1.25-0.25 2.8t-0.5 2.8l0.15 0.05q1-2.65 2.43-4.93 1.42-2.27 3.32-3.67t4.4-1.4q2.65 0 4.05 1.6t1.4 4q0 1-0.22 1.9-0.23 0.9-0.48 1.75-0.25 0.8-0.42 1.65-0.18 0.85-0.18 1.7 0 2.85 2.7 3.85 0.7 0.3 0.7 0.9 0 0.45-0.3 1.3t-1.1 1.57q-0.8 0.73-2.35 0.73-2 0-3.1-1.43-1.1-1.42-1.1-3.62 0-1.25 0.28-2.53 0.27-1.27 0.57-2.37 0.2-0.85 0.38-1.68 0.17-0.82 0.17-1.47 0-2.3-2.4-2.3-2.05 0-3.6 1.52-1.55 1.53-2.65 3.83t-1.8 4.65v1.2q0 1.85-1.02 3.05-1.03 1.2-2.78 1.2zm31.85 0.1q-3.8 0-5.93-2.18-2.12-2.17-2.12-6.07 0-3.55 1.55-6.45t4.17-4.63q2.63-1.72 5.78-1.72 3 0 4.8 1.47 1.8 1.48 1.8 3.93 0 1.95-1.2 3.6t-3.2 2.62q-2 0.98-4.45 0.98-3 0-4.9-1.35 0.05 2.3 1.57 3.7 1.53 1.4 3.93 1.4 1.45 0 2.97-0.53 1.53-0.52 2.63-1.42 0.7-0.6 1.3-0.6 0.5 0 0.82 0.32 0.33 0.33 0.33 0.83 0 1.1-1.9 2.9-3.35 3.2-7.95 3.2zm0.75-11.75q1.8 0 3-0.75t1.2-1.9q0-0.95-0.8-1.48-0.8-0.52-2.2-0.52-1.85 0-3.23 0.97-1.37 0.98-1.97 2.73 0.7 0.45 1.8 0.7t2.2 0.25zm19.75 11.75q-1.86 0-3.45-0.55-1.61-0.55-2.61-1.55t-1-2.4q0-0.75 0.38-1.43 0.37-0.67 1.23-0.67 0.45 0 0.95 0.25 0.89 0.5 2.3 0.92 1.39 0.43 2.95 0.43 1.75 0 3.1-0.5 1.34-0.5 1.34-1.4 0-0.7-1.02-1-1.03-0.3-3.42-0.65-1.65-0.3-3.2-0.7t-2.55-1.38q-1-0.97-1-2.87 0-1.85 1.02-3.58 1.03-1.72 3.08-2.87 2.04-1.15 5-1.15 1.54 0 3 0.35 1.45 0.35 2.4 1.05 0.94 0.7 0.94 1.75 0 0.9-0.62 1.65-0.63 0.75-1.45 1.22-0.82 0.48-1.37 0.48-0.4 0-0.95-0.55-0.86-0.7-1.88-0.98-1.03-0.27-2.03-0.27-1.5 0-2.42 0.45t-0.92 1.15q0 0.65 0.77 1.05 0.78 0.4 1.93 0.57 1.14 0.18 2.19 0.33 2.91 0.4 4.61 1.37 1.7 0.98 1.7 3.43 0 1.9-1.08 3.77-1.07 1.88-3.1 3.08-2.02 1.2-4.82 1.2zm19.44 0q-1.85 0-3.45-0.55t-2.6-1.55-1-2.4q0-0.75 0.38-1.43 0.37-0.67 1.22-0.67 0.45 0 0.95 0.25 0.9 0.5 2.3 0.92 1.4 0.43 2.95 0.43 1.75 0 3.1-0.5t1.35-1.4q0-0.7-1.02-1-1.03-0.3-3.43-0.65-1.65-0.3-3.2-0.7t-2.55-1.38q-1-0.97-1-2.87 0-1.85 1.03-3.58 1.02-1.72 3.07-2.87t5-1.15q1.55 0 3 0.35t2.4 1.05 0.95 1.75q0 0.9-0.62 1.65-0.63 0.75-1.45 1.22-0.83 0.48-1.38 0.48-0.4 0-0.95-0.55-0.85-0.7-1.87-0.98-1.03-0.27-2.03-0.27-1.5 0-2.42 0.45-0.93 0.45-0.93 1.15 0 0.65 0.78 1.05 0.77 0.4 1.92 0.57 1.15 0.18 2.2 0.33 2.9 0.4 4.6 1.37 1.7 0.98 1.7 3.43 0 1.9-1.07 3.77-1.08 1.88-3.1 3.08-2.03 1.2-4.83 1.2zm21.15 0q-3.8 0-5.93-2.18-2.12-2.17-2.12-6.07 0-3.55 1.55-6.45t4.17-4.63q2.63-1.72 5.78-1.72 3 0 4.8 1.47 1.8 1.48 1.8 3.93 0 1.95-1.2 3.6t-3.2 2.62q-2 0.98-4.45 0.98-3 0-4.9-1.35 0.05 2.3 1.57 3.7 1.53 1.4 3.93 1.4 1.45 0 2.97-0.53 1.53-0.52 2.63-1.42 0.7-0.6 1.3-0.6 0.5 0 0.82 0.32 0.33 0.33 0.33 0.83 0 1.1-1.9 2.9-3.35 3.2-7.95 3.2zm0.75-11.75q1.8 0 3-0.75t1.2-1.9q0-0.95-0.8-1.48-0.8-0.52-2.2-0.52-1.85 0-3.22 0.97-1.38 0.98-1.98 2.73 0.7 0.45 1.8 0.7t2.2 0.25zm19.75 11.75q-1.85 0-3.45-0.55t-2.6-1.55-1-2.4q0-0.75 0.37-1.43 0.38-0.67 1.23-0.67 0.45 0 0.95 0.25 0.9 0.5 2.3 0.92 1.4 0.43 2.95 0.43 1.75 0 3.1-0.5t1.35-1.4q0-0.7-1.03-1-1.02-0.3-3.42-0.65-1.65-0.3-3.2-0.7t-2.55-1.38q-1-0.97-1-2.87 0-1.85 1.02-3.58 1.03-1.72 3.08-2.87t5-1.15q1.55 0 3 0.35t2.4 1.05 0.95 1.75q0 0.9-0.63 1.65-0.62 0.75-1.45 1.22-0.82 0.48-1.37 0.48-0.4 0-0.95-0.55-0.85-0.7-1.88-0.98-1.02-0.27-2.02-0.27-1.5 0-2.43 0.45-0.92 0.45-0.92 1.15 0 0.65 0.77 1.05 0.78 0.4 1.93 0.57 1.15 0.18 2.2 0.33 2.9 0.4 4.6 1.37 1.7 0.98 1.7 3.43 0 1.9-1.08 3.77-1.07 1.88-3.1 3.08-2.02 1.2-4.82 1.2zm32.99 0q-3 0-4.82-1.88-1.83-1.87-1.83-5.37 0-2.5 0.98-4.98 0.97-2.47 2.82-4.47t4.45-3.2 5.85-1.2q3 0 5.13 1.02 2.12 1.03 2.12 2.78 0 0.45-0.1 1.17-0.1 0.73-0.25 1.18-0.15 0.4-0.42 0.72-0.28 0.33-0.73 0.33-0.2 0-0.75-0.15-0.2 1.05-0.3 2.05t-0.1 2q0 1.9 0.58 3.37 0.57 1.48 2.27 1.83 0.45 0.1 0.73 0.3 0.27 0.2 0.27 0.85 0 0.55-0.27 1.4-0.28 0.85-1.05 1.52-0.78 0.68-2.23 0.68-1.95 0-3-1.43-1.05-1.42-1.05-4.07-1.35 2.45-3.42 4-2.08 1.55-4.88 1.55zm1.6-5.2q2 0 3.53-1.25 1.52-1.25 2.37-3.15 0.55-1.2 0.85-2.63 0.3-1.42 0.4-2.82-0.85-0.4-1.95-0.65t-2.3-0.25q-3.05 0-5.02 1.8-1.98 1.8-1.98 4.5 0 2 1.1 3.22 1.1 1.23 3 1.23zm20.2 5.1q-1.8 0-1.6-1.2 0.55-2.15 0.92-4.38 0.38-2.22 0.38-4.27 0-2.65-0.33-3.88-0.32-1.22-0.87-1.7-0.55-0.47-1.35-0.72-0.35-0.15-0.63-0.4-0.27-0.25-0.27-0.7 0-0.7 0.55-1.55t1.57-1.48q1.03-0.62 2.33-0.62 1.7 0 2.35 1.17 0.65 1.18 0.65 3.08 0 1.25-0.25 2.8t-0.5 2.8l0.15 0.05q1-2.65 2.42-4.93 1.43-2.27 3.33-3.67t4.4-1.4q2.65 0 4.05 1.6t1.4 4q0 1-0.23 1.9-0.22 0.9-0.47 1.75-0.25 0.8-0.43 1.65-0.17 0.85-0.17 1.7 0 2.85 2.7 3.85 0.7 0.3 0.7 0.9 0 0.45-0.3 1.3t-1.1 1.57q-0.8 0.73-2.35 0.73-2 0-3.1-1.43-1.1-1.42-1.1-3.62 0-1.25 0.27-2.53 0.28-1.27 0.58-2.37 0.2-0.85 0.37-1.68 0.18-0.82 0.18-1.47 0-2.3-2.4-2.3-2.05 0-3.6 1.52-1.55 1.53-2.65 3.83t-1.8 4.65v1.2q0 1.85-1.03 3.05-1.02 1.2-2.77 1.2zm30.25 0.1q-3 0-4.73-2-1.72-2-1.72-5.45 0-2.55 0.82-5 0.83-2.45 2.33-4.4t3.5-3.1 4.35-1.15q1.5 0 2.67 0.45 1.18 0.45 2.08 1.15-0.05-3.4-0.35-6.1t-1.45-5q-0.2-0.4-0.33-0.73-0.12-0.32-0.12-0.62 0-0.7 0.57-1.3 0.58-0.6 1.43-1t1.6-0.4q1.35 0 2.02 1.17 0.68 1.18 0.88 3.2 0.2 2.03 0.2 4.63 0 3.8-0.35 6.85t-0.65 5.35q-0.2 1.5-0.35 2.6t-0.15 1.8q0 3.55 3.05 4.2 0.8 0.15 0.8 1.05 0 0.55-0.33 1.4-0.32 0.85-1.17 1.52-0.85 0.68-2.45 0.68-2.15 0-2.9-1.45t-0.75-4.4q-1.4 2.55-3.55 4.3t-4.95 1.75zm1.55-5.35q1.4 0 2.8-0.9t2.5-2.45q0.65-0.95 1.17-2.18 0.53-1.22 0.98-2.47-2.55-2.3-5.65-2.3-2.7 0-4.3 1.62-1.6 1.63-1.6 4.03 0 2.05 1.2 3.35t2.9 1.3zm38.54 5.35q-3.5 0-5.47-2.13-1.98-2.12-1.98-5.92 0-3.75 1.6-6.7t4.4-4.65 6.35-1.7q2.4 0 3.8 0.8t1.4 2.2q0 1.25-1.2 2.45-0.45 0.45-1.17 0.82-0.73 0.38-1.13 0.38-0.45 0-0.75-0.35-0.5-0.55-1.3-1.05t-2.25-0.5q-2.45 0-4 1.67-1.55 1.68-1.55 4.38 0 2.45 1.4 3.95t3.7 1.5q1.2 0 2.63-0.43 1.42-0.42 2.52-1.22 0.55-0.5 1.15-0.5 1 0 1 1.25 0 1.65-1.65 3.15-1.25 1.15-3.32 1.87-2.08 0.73-4.18 0.73zm16.25-0.1q-0.8 0-1.28-0.27-0.47-0.28-0.32-0.93 0.55-2.15 0.93-4.38 0.37-2.22 0.37-4.27 0-2.65-0.33-3.88-0.32-1.22-0.87-1.7-0.55-0.47-1.35-0.72-0.35-0.15-0.62-0.4-0.28-0.25-0.28-0.7 0-0.7 0.55-1.55t1.55-1.48q1-0.62 2.3-0.62 1.7 0 2.38 1.17 0.67 1.18 0.67 3.08 0.9-2 2.22-3.18 1.33-1.17 3.33-1.17 1.35 0 2.25 0.6t0.9 1.95-0.87 2.52q-0.88 1.18-1.78 1.18-0.15 0-0.35-0.05t-0.35-0.25q-0.65-0.8-1.6-0.8-1.45 0-2.55 1.9t-1.2 5.25q0.05 1.25 0.08 2.55 0.02 1.3 0.02 1.9 0 1.85-1.02 3.05-1.03 1.2-2.78 1.2zm20.85 0.1q-3.8 0-5.93-2.18-2.12-2.17-2.12-6.07 0-3.55 1.55-6.45t4.17-4.63q2.63-1.72 5.78-1.72 3 0 4.8 1.47 1.8 1.48 1.8 3.93 0 1.95-1.2 3.6t-3.2 2.62q-2 0.98-4.45 0.98-3 0-4.9-1.35 0.05 2.3 1.57 3.7 1.53 1.4 3.93 1.4 1.45 0 2.97-0.53 1.53-0.52 2.63-1.42 0.7-0.6 1.3-0.6 0.5 0 0.82 0.32 0.33 0.33 0.33 0.83 0 1.1-1.9 2.9-3.35 3.2-7.95 3.2zm0.75-11.75q1.8 0 3-0.75t1.2-1.9q0-0.95-0.8-1.48-0.8-0.52-2.2-0.52-1.85 0-3.23 0.97-1.37 0.98-1.97 2.73 0.7 0.45 1.8 0.7t2.2 0.25zm19.34 11.75q-3 0-4.82-1.88-1.83-1.87-1.83-5.37 0-2.5 0.98-4.98 0.97-2.47 2.82-4.47t4.45-3.2 5.85-1.2q3 0 5.13 1.02 2.12 1.03 2.12 2.78 0 0.45-0.1 1.17-0.1 0.73-0.25 1.18-0.15 0.4-0.42 0.72-0.28 0.33-0.73 0.33-0.2 0-0.75-0.15-0.2 1.05-0.3 2.05t-0.1 2q0 1.9 0.58 3.37 0.57 1.48 2.27 1.83 0.45 0.1 0.73 0.3 0.27 0.2 0.27 0.85 0 0.55-0.27 1.4-0.28 0.85-1.05 1.52-0.78 0.68-2.23 0.68-1.95 0-3-1.43-1.05-1.42-1.05-4.07-1.35 2.45-3.42 4-2.08 1.55-4.88 1.55zm1.6-5.2q2 0 3.53-1.25 1.52-1.25 2.37-3.15 0.55-1.2 0.85-2.63 0.3-1.42 0.4-2.82-0.85-0.4-1.95-0.65t-2.3-0.25q-3.05 0-5.02 1.8-1.98 1.8-1.98 4.5 0 2 1.1 3.22 1.1 1.23 3 1.23zm24.7 5.2q-3.05 0-4.37-2.03-1.33-2.02-1.33-5.22 0-1.15 0.13-2.25 0.12-1.1 0.27-2.2t0.3-2.15 0.25-2q-1.05 0.3-2.1 0.3-1.1 0-1.1-0.9 0-0.95 0.85-2.33 0.85-1.37 2.13-2.72 1.27-1.35 2.55-2.28 1.27-0.92 2.17-0.92 1.1 0 1.1 1.9 0 0.5-0.07 1.02-0.08 0.53-0.18 1.08 0.95-0.2 1.93-0.35 0.97-0.15 1.87-0.15 1.15 0 1.78 0.4 0.62 0.4 0.62 1.55 0 1.2-0.57 2.4-0.58 1.2-1.28 1.2-0.15 0-0.5-0.05t-0.85-0.15q-0.65-0.15-1.65-0.3t-2.4-0.15q-0.35 1.55-0.62 3.17-0.28 1.63-0.28 2.93 0 2.9 1.45 3.95t4.2 1.05q0.85 0 1.2 0.27 0.35 0.28 0.35 0.98 0 1.65-1.7 2.8t-4.15 1.15zm17.35 0q-3.45 0-5.53-1.88-2.07-1.87-2.07-5.52 0-1.7 0.47-3.3 0.48-1.6 1.28-3-0.8 0.5-1.2 0.5-0.6 0-0.83-0.68-0.22-0.67-0.22-1.32 0-1.15 0.47-1.83 0.48-0.67 0.93-1.02 1.05-0.9 3.3-1.98 2.25-1.07 5.4-1.07 4.3 0 6.67 2.4 2.38 2.4 2.38 6.7 0 3.35-1.4 6.07-1.4 2.73-3.88 4.33-2.47 1.6-5.77 1.6zm1.55-5.1q2.5 0 4.22-1.58 1.73-1.57 1.73-4.17 0-2.7-1.75-3.85t-4.05-1.15q-1.05 0-1.9 0.2t-1.6 0.5q-0.7 1-1.25 2.25t-0.55 2.75q0 2.5 1.5 3.77 1.5 1.28 3.65 1.28zm16.35 5q-0.8 0-1.28-0.27-0.47-0.28-0.32-0.93 0.55-2.15 0.92-4.38 0.38-2.22 0.38-4.27 0-2.65-0.33-3.88-0.32-1.22-0.87-1.7-0.55-0.47-1.35-0.72-0.35-0.15-0.63-0.4-0.27-0.25-0.27-0.7 0-0.7 0.55-1.55t1.55-1.48q1-0.62 2.3-0.62 1.7 0 2.37 1.17 0.68 1.18 0.68 3.08 0.9-2 2.22-3.18 1.33-1.17 3.33-1.17 1.35 0 2.25 0.6t0.9 1.95-0.88 2.52q-0.87 1.18-1.77 1.18-0.15 0-0.35-0.05t-0.35-0.25q-0.65-0.8-1.6-0.8-1.45 0-2.55 1.9t-1.2 5.25q0.05 1.25 0.07 2.55 0.03 1.3 0.03 1.9 0 1.85-1.03 3.05-1.02 1.2-2.77 1.2zm20.09 0.1q-1.85 0-3.45-0.55t-2.6-1.55-1-2.4q0-0.75 0.38-1.43 0.37-0.67 1.22-0.67 0.45 0 0.95 0.25 0.9 0.5 2.3 0.92 1.4 0.43 2.95 0.43 1.75 0 3.1-0.5t1.35-1.4q0-0.7-1.02-1-1.03-0.3-3.43-0.65-1.65-0.3-3.2-0.7t-2.55-1.38q-1-0.97-1-2.87 0-1.85 1.03-3.58 1.02-1.72 3.07-2.87t5-1.15q1.55 0 3 0.35t2.4 1.05 0.95 1.75q0 0.9-0.62 1.65-0.63 0.75-1.45 1.22-0.83 0.48-1.38 0.48-0.4 0-0.95-0.55-0.85-0.7-1.87-0.98-1.03-0.27-2.03-0.27-1.5 0-2.42 0.45-0.93 0.45-0.93 1.15 0 0.65 0.78 1.05 0.77 0.4 1.92 0.57 1.15 0.18 2.2 0.33 2.9 0.4 4.6 1.37 1.7 0.98 1.7 3.43 0 1.9-1.07 3.77-1.08 1.88-3.1 3.08-2.03 1.2-4.83 1.2z" fill="#fff" data-fill-palette-color="secondary"/>
</svg>
</g>
</svg>
</g>
</svg>
</svg>
</svg>
</svg>
<rect width="395.52" height="134.74" fill="none" visibility="hidden"/>
</g>
</svg>
</g>
</svg>
